<?xml version="1.0" standalone="no"?>
<!DOCTYPE svg PUBLIC "-//W3C//DTD SVG 20010904//EN"
 "http://www.w3.org/TR/2001/REC-SVG-20010904/DTD/svg10.dtd">
<svg version="1.0" xmlns="http://www.w3.org/2000/svg"
 width="50.000000pt" height="50.000000pt" viewBox="0 0 50.000000 50.000000"
 preserveAspectRatio="xMidYMid meet">

<g transform="translate(0.000000,50.000000) scale(0.100000,-0.100000)"
fill="#000000" stroke="none">
<path d="M25 475 c-25 -24 -25 -25 -25 -225 0 -270 -20 -250 250 -250 270 0
250 -20 250 250 0 270 20 250 -250 250 -200 0 -201 0 -225 -25z m275 -100 c0
-34 -1 -35 -40 -35 l-40 0 0 -125 0 -125 -40 0 -40 0 0 125 0 125 -40 0 c-39
0 -40 1 -40 35 l0 35 120 0 120 0 0 -35z m118 -156 c3 -74 -12 -110 -49 -123
-42 -14 -109 13 -109 45 0 13 34 11 47 -2 13 -13 55 -8 60 7 2 6 -10 8 -31 6
-65 -8 -102 72 -56 118 17 17 31 20 78 17 l57 -3 3 -65z"/>
<path d="M305 230 c-9 -28 6 -43 36 -38 18 2 24 9 24 28 0 34 -50 42 -60 10z"/>
</g>
</svg>
